<svg width="96" height="96" viewBox="0 0 96 96" fill="none" xmlns="http://www.w3.org/2000/svg">
  <rect width="96" height="96" rx="28" fill="#07111F"/>
  <rect x="17" y="17" width="62" height="62" rx="20" fill="url(#paint0_linear_1_2)" fill-opacity="0.16" stroke="url(#paint1_linear_1_2)" stroke-width="2"/>
  <path d="M48 28L62 36V52C62 61.3888 55.357 69.7318 46.2 71.7805C37.043 69.7318 30.4 61.3888 30.4 52V36L48 28Z" fill="url(#paint2_linear_1_2)"/>
  <path d="M48 39C51.866 39 55 42.134 55 46C55 49.866 51.866 53 48 53C44.134 53 41 49.866 41 46C41 42.134 44.134 39 48 39Z" fill="#07111F"/>
  <path d="M37 62C39.8513 57.9143 43.5251 55.8715 48.0214 55.8715C52.5177 55.8715 56.1772 57.9143 59 62" stroke="#07111F" stroke-width="4.5" stroke-linecap="round"/>
  <defs>
    <linearGradient id="paint0_linear_1_2" x1="17" y1="17" x2="79" y2="79" gradientUnits="userSpaceOnUse">
      <stop stop-color="#67E8F9"/>
      <stop offset="1" stop-color="#34D399"/>
    </linearGradient>
    <linearGradient id="paint1_linear_1_2" x1="17" y1="17" x2="79" y2="79" gradientUnits="userSpaceOnUse">
      <stop stop-color="#67E8F9"/>
      <stop offset="1" stop-color="#34D399"/>
    </linearGradient>
    <linearGradient id="paint2_linear_1_2" x1="30.4" y1="28" x2="67.5558" y2="65.5574" gradientUnits="userSpaceOnUse">
      <stop stop-color="#67E8F9"/>
      <stop offset="1" stop-color="#34D399"/>
    </linearGradient>
  </defs>
</svg>

